<svg width="88" height="24" viewBox="0 0 88 24" fill="none" xmlns="http://www.w3.org/2000/svg">
<rect x="46" width="40" height="24" rx="3" fill="#FD8900"/>
<path d="M0.722656 13.687L3.53516 13.4136C3.70443 14.3576 4.04622 15.0509 4.56055 15.4937C5.08138 15.9364 5.78125 16.1577 6.66016 16.1577C7.59115 16.1577 8.29102 15.9624 8.75977 15.5718C9.23503 15.1746 9.47266 14.7124 9.47266 14.1851C9.47266 13.8465 9.37174 13.5601 9.16992 13.3257C8.97461 13.0848 8.62956 12.8765 8.13477 12.7007C7.79622 12.5835 7.02474 12.3752 5.82031 12.0757C4.27083 11.6916 3.18359 11.2196 2.55859 10.6597C1.67969 9.87191 1.24023 8.91162 1.24023 7.77881C1.24023 7.04964 1.44531 6.3693 1.85547 5.73779C2.27214 5.09977 2.86784 4.61475 3.64258 4.28271C4.42383 3.95068 5.36458 3.78467 6.46484 3.78467C8.26172 3.78467 9.61263 4.17855 10.5176 4.96631C11.429 5.75407 11.9076 6.8055 11.9531 8.12061L9.0625 8.24756C8.9388 7.51188 8.67188 6.98454 8.26172 6.66553C7.85807 6.34001 7.24935 6.17725 6.43555 6.17725C5.5957 6.17725 4.93815 6.34977 4.46289 6.69482C4.1569 6.91618 4.00391 7.2124 4.00391 7.5835C4.00391 7.92204 4.14714 8.21175 4.43359 8.45264C4.79818 8.75863 5.68359 9.07764 7.08984 9.40967C8.49609 9.7417 9.53451 10.0868 10.2051 10.4448C10.8822 10.7964 11.4095 11.2814 11.7871 11.8999C12.1712 12.5119 12.3633 13.2703 12.3633 14.1753C12.3633 14.9956 12.1354 15.7638 11.6797 16.48C11.224 17.1961 10.5794 17.73 9.74609 18.0815C8.91276 18.4266 7.87435 18.5991 6.63086 18.5991C4.82096 18.5991 3.43099 18.1825 2.46094 17.3491C1.49089 16.5093 0.911458 15.2886 0.722656 13.687ZM19.5312 7.97412V10.1616H17.6562V14.3413C17.6562 15.1877 17.6725 15.6825 17.7051 15.8257C17.7441 15.9624 17.8255 16.0763 17.9492 16.1675C18.0794 16.2586 18.2357 16.3042 18.418 16.3042C18.6719 16.3042 19.0397 16.2163 19.5215 16.0405L19.7559 18.1694C19.1178 18.4429 18.3952 18.5796 17.5879 18.5796C17.0931 18.5796 16.6471 18.4982 16.25 18.3354C15.8529 18.1662 15.5599 17.9513 15.3711 17.6909C15.1888 17.424 15.0618 17.0659 14.9902 16.6167C14.9316 16.2977 14.9023 15.6532 14.9023 14.6831V10.1616H13.6426V7.97412H14.9023V5.91357L17.6562 4.31201V7.97412H19.5312ZM28.2617 18.3452V16.7925C27.8841 17.3459 27.3861 17.7821 26.7676 18.1011C26.1556 18.4201 25.5078 18.5796 24.8242 18.5796C24.1276 18.5796 23.5026 18.4266 22.9492 18.1206C22.3958 17.8146 21.9954 17.3849 21.748 16.8315C21.5007 16.2782 21.377 15.5132 21.377 14.5366V7.97412H24.1211V12.7397C24.1211 14.1981 24.1699 15.0933 24.2676 15.4253C24.3717 15.7508 24.5573 16.0112 24.8242 16.2065C25.0911 16.3953 25.4297 16.4897 25.8398 16.4897C26.3086 16.4897 26.7285 16.3628 27.0996 16.1089C27.4707 15.8485 27.7246 15.5295 27.8613 15.1519C27.998 14.7677 28.0664 13.8335 28.0664 12.3491V7.97412H30.8105V18.3452H28.2617ZM43.1738 18.3452H40.625V16.8218C40.2018 17.4142 39.7005 17.8569 39.1211 18.1499C38.5482 18.4364 37.9688 18.5796 37.3828 18.5796C36.1914 18.5796 35.1693 18.1011 34.3164 17.144C33.4701 16.1805 33.0469 14.8394 33.0469 13.1206C33.0469 11.3628 33.4603 10.0282 34.2871 9.1167C35.1139 8.19873 36.1589 7.73975 37.4219 7.73975C38.5807 7.73975 39.5833 8.22152 40.4297 9.18506V4.02881H43.1738V18.3452ZM35.8496 12.9351C35.8496 14.0418 36.0026 14.8426 36.3086 15.3374C36.7513 16.0535 37.3698 16.4116 38.1641 16.4116C38.7956 16.4116 39.3327 16.1447 39.7754 15.6108C40.2181 15.0705 40.4395 14.2664 40.4395 13.1987C40.4395 12.0073 40.2246 11.1512 39.7949 10.6304C39.3652 10.103 38.8151 9.83936 38.1445 9.83936C37.4935 9.83936 36.9466 10.0998 36.5039 10.6206C36.0677 11.1349 35.8496 11.9064 35.8496 12.9351Z" fill="#FFF8F8"/>
<path d="M51.7024 4.02881V9.29248C52.5878 8.25732 53.6458 7.73975 54.8762 7.73975C55.5077 7.73975 56.0774 7.85693 56.5852 8.09131C57.093 8.32568 57.4739 8.62516 57.7278 8.98975C57.9882 9.35433 58.164 9.75798 58.2551 10.2007C58.3528 10.6434 58.4016 11.3302 58.4016 12.2612V18.3452H55.6575V12.8667C55.6575 11.7795 55.6054 11.0894 55.5012 10.7964C55.3971 10.5034 55.2115 10.2723 54.9446 10.103C54.6842 9.92725 54.3554 9.83936 53.9583 9.83936C53.5025 9.83936 53.0956 9.95003 52.7375 10.1714C52.3795 10.3927 52.1158 10.728 51.9465 11.1772C51.7838 11.62 51.7024 12.2775 51.7024 13.1499V18.3452H48.9583V4.02881H51.7024ZM68.0208 18.3452V16.7925C67.6431 17.3459 67.1451 17.7821 66.5266 18.1011C65.9146 18.4201 65.2668 18.5796 64.5833 18.5796C63.8866 18.5796 63.2616 18.4266 62.7083 18.1206C62.1549 17.8146 61.7545 17.3849 61.5071 16.8315C61.2597 16.2782 61.136 15.5132 61.136 14.5366V7.97412H63.8801V12.7397C63.8801 14.1981 63.929 15.0933 64.0266 15.4253C64.1308 15.7508 64.3163 16.0112 64.5833 16.2065C64.8502 16.3953 65.1887 16.4897 65.5989 16.4897C66.0676 16.4897 66.4875 16.3628 66.8586 16.1089C67.2297 15.8485 67.4836 15.5295 67.6204 15.1519C67.7571 14.7677 67.8254 13.8335 67.8254 12.3491V7.97412H70.5696V18.3452H68.0208ZM73.304 18.3452V4.02881H76.0481V9.18506C76.8944 8.22152 77.8971 7.73975 79.0559 7.73975C80.3189 7.73975 81.3639 8.19873 82.1907 9.1167C83.0175 10.0282 83.4309 11.34 83.4309 13.0522C83.4309 14.8231 83.0077 16.187 82.1614 17.144C81.3215 18.1011 80.2994 18.5796 79.095 18.5796C78.5025 18.5796 77.9166 18.4331 77.3372 18.1401C76.7642 17.8407 76.2694 17.4012 75.8528 16.8218V18.3452H73.304ZM76.0286 12.9351C76.0286 14.0093 76.1978 14.8035 76.5364 15.3179C77.0116 16.047 77.6431 16.4116 78.4309 16.4116C79.0364 16.4116 79.5507 16.1545 79.9739 15.6401C80.4036 15.1193 80.6184 14.3022 80.6184 13.189C80.6184 12.0041 80.4036 11.1512 79.9739 10.6304C79.5442 10.103 78.9941 9.83936 78.3235 9.83936C77.6659 9.83936 77.1191 10.0965 76.6829 10.6108C76.2467 11.1187 76.0286 11.8934 76.0286 12.9351Z" fill="black"/>
</svg>
