<svg width="278" height="72" viewBox="0 0 278 72" fill="none" xmlns="http://www.w3.org/2000/svg">
<rect x="147" width="131" height="72" rx="13" fill="#FD8900"/>
<path d="M2.3125 44.0938L11.3125 43.2188C11.8542 46.2396 12.9479 48.4583 14.5938 49.875C16.2604 51.2917 18.5 52 21.3125 52C24.2917 52 26.5312 51.375 28.0312 50.125C29.5521 48.8542 30.3125 47.375 30.3125 45.6875C30.3125 44.6042 29.9896 43.6875 29.3438 42.9375C28.7188 42.1667 27.6146 41.5 26.0312 40.9375C24.9479 40.5625 22.4792 39.8958 18.625 38.9375C13.6667 37.7083 10.1875 36.1979 8.1875 34.4062C5.375 31.8854 3.96875 28.8125 3.96875 25.1875C3.96875 22.8542 4.625 20.6771 5.9375 18.6562C7.27083 16.6146 9.17708 15.0625 11.6562 14C14.1562 12.9375 17.1667 12.4062 20.6875 12.4062C26.4375 12.4062 30.7604 13.6667 33.6562 16.1875C36.5729 18.7083 38.1042 22.0729 38.25 26.2812L29 26.6875C28.6042 24.3333 27.75 22.6458 26.4375 21.625C25.1458 20.5833 23.1979 20.0625 20.5938 20.0625C17.9062 20.0625 15.8021 20.6146 14.2812 21.7188C13.3021 22.4271 12.8125 23.375 12.8125 24.5625C12.8125 25.6458 13.2708 26.5729 14.1875 27.3438C15.3542 28.3229 18.1875 29.3438 22.6875 30.4062C27.1875 31.4688 30.5104 32.5729 32.6562 33.7188C34.8229 34.8438 36.5104 36.3958 37.7188 38.375C38.9479 40.3333 39.5625 42.7604 39.5625 45.6562C39.5625 48.2812 38.8333 50.7396 37.375 53.0312C35.9167 55.3229 33.8542 57.0312 31.1875 58.1562C28.5208 59.2604 25.1979 59.8125 21.2188 59.8125C15.4271 59.8125 10.9792 58.4792 7.875 55.8125C4.77083 53.125 2.91667 49.2188 2.3125 44.0938ZM62.5 25.8125V32.8125H56.5V46.1875C56.5 48.8958 56.5521 50.4792 56.6562 50.9375C56.7812 51.375 57.0417 51.7396 57.4375 52.0312C57.8542 52.3229 58.3542 52.4688 58.9375 52.4688C59.75 52.4688 60.9271 52.1875 62.4688 51.625L63.2188 58.4375C61.1771 59.3125 58.8646 59.75 56.2812 59.75C54.6979 59.75 53.2708 59.4896 52 58.9688C50.7292 58.4271 49.7917 57.7396 49.1875 56.9062C48.6042 56.0521 48.1979 54.9062 47.9688 53.4688C47.7812 52.4479 47.6875 50.3854 47.6875 47.2812V32.8125H43.6562V25.8125H47.6875V19.2188L56.5 14.0938V25.8125H62.5ZM90.4375 59V54.0312C89.2292 55.8021 87.6354 57.1979 85.6562 58.2188C83.6979 59.2396 81.625 59.75 79.4375 59.75C77.2083 59.75 75.2083 59.2604 73.4375 58.2812C71.6667 57.3021 70.3854 55.9271 69.5938 54.1562C68.8021 52.3854 68.4062 49.9375 68.4062 46.8125V25.8125H77.1875V41.0625C77.1875 45.7292 77.3438 48.5938 77.6562 49.6562C77.9896 50.6979 78.5833 51.5312 79.4375 52.1562C80.2917 52.7604 81.375 53.0625 82.6875 53.0625C84.1875 53.0625 85.5312 52.6562 86.7188 51.8438C87.9062 51.0104 88.7188 49.9896 89.1562 48.7812C89.5938 47.5521 89.8125 44.5625 89.8125 39.8125V25.8125H98.5938V59H90.4375ZM138.156 59H130V54.125C128.646 56.0208 127.042 57.4375 125.188 58.375C123.354 59.2917 121.5 59.75 119.625 59.75C115.812 59.75 112.542 58.2188 109.812 55.1562C107.104 52.0729 105.75 47.7812 105.75 42.2812C105.75 36.6562 107.073 32.3854 109.719 29.4688C112.365 26.5312 115.708 25.0625 119.75 25.0625C123.458 25.0625 126.667 26.6042 129.375 29.6875V13.1875H138.156V59ZM114.719 41.6875C114.719 45.2292 115.208 47.7917 116.188 49.375C117.604 51.6667 119.583 52.8125 122.125 52.8125C124.146 52.8125 125.865 51.9583 127.281 50.25C128.698 48.5208 129.406 45.9479 129.406 42.5312C129.406 38.7188 128.719 35.9792 127.344 34.3125C125.969 32.625 124.208 31.7812 122.062 31.7812C119.979 31.7812 118.229 32.6146 116.812 34.2812C115.417 35.9271 114.719 38.3958 114.719 41.6875Z" fill="#FFF8F8"/>
<path d="M166.344 13.1875V30.0312C169.177 26.7188 172.562 25.0625 176.5 25.0625C178.521 25.0625 180.344 25.4375 181.969 26.1875C183.594 26.9375 184.812 27.8958 185.625 29.0625C186.458 30.2292 187.021 31.5208 187.312 32.9375C187.625 34.3542 187.781 36.5521 187.781 39.5312V59H179V41.4688C179 37.9896 178.833 35.7812 178.5 34.8438C178.167 33.9062 177.573 33.1667 176.719 32.625C175.885 32.0625 174.833 31.7812 173.562 31.7812C172.104 31.7812 170.802 32.1354 169.656 32.8438C168.51 33.5521 167.667 34.625 167.125 36.0625C166.604 37.4792 166.344 39.5833 166.344 42.375V59H157.562V13.1875H166.344ZM218.562 59V54.0312C217.354 55.8021 215.76 57.1979 213.781 58.2188C211.823 59.2396 209.75 59.75 207.562 59.75C205.333 59.75 203.333 59.2604 201.562 58.2812C199.792 57.3021 198.51 55.9271 197.719 54.1562C196.927 52.3854 196.531 49.9375 196.531 46.8125V25.8125H205.312V41.0625C205.312 45.7292 205.469 48.5938 205.781 49.6562C206.115 50.6979 206.708 51.5312 207.562 52.1562C208.417 52.7604 209.5 53.0625 210.812 53.0625C212.312 53.0625 213.656 52.6562 214.844 51.8438C216.031 51.0104 216.844 49.9896 217.281 48.7812C217.719 47.5521 217.938 44.5625 217.938 39.8125V25.8125H226.719V59H218.562ZM235.469 59V13.1875H244.25V29.6875C246.958 26.6042 250.167 25.0625 253.875 25.0625C257.917 25.0625 261.26 26.5312 263.906 29.4688C266.552 32.3854 267.875 36.5833 267.875 42.0625C267.875 47.7292 266.521 52.0938 263.812 55.1562C261.125 58.2188 257.854 59.75 254 59.75C252.104 59.75 250.229 59.2812 248.375 58.3438C246.542 57.3854 244.958 55.9792 243.625 54.125V59H235.469ZM244.188 41.6875C244.188 45.125 244.729 47.6667 245.812 49.3125C247.333 51.6458 249.354 52.8125 251.875 52.8125C253.812 52.8125 255.458 51.9896 256.812 50.3438C258.188 48.6771 258.875 46.0625 258.875 42.5C258.875 38.7083 258.188 35.9792 256.812 34.3125C255.438 32.625 253.677 31.7812 251.531 31.7812C249.427 31.7812 247.677 32.6042 246.281 34.25C244.885 35.875 244.188 38.3542 244.188 41.6875Z" fill="black"/>
</svg>
